<svg xmlns="http://www.w3.org/2000/svg" width="1600" height="1000" viewBox="0 0 1600 1000" role="img" aria-labelledby="title desc">
  <title id="title">Lumo model sheet version 1</title>
  <desc id="desc">Canonical front, three-quarter, side and back views plus eight facial expressions for the original character Lumo.</desc>
  <defs>
    <radialGradient id="body" cx="35%" cy="28%" r="75%">
      <stop offset="0" stop-color="#FFF1A8"/>
      <stop offset="0.58" stop-color="#FFD85A"/>
      <stop offset="1" stop-color="#F79A4A"/>
    </radialGradient>
    <radialGradient id="bodySide" cx="30%" cy="30%" r="80%">
      <stop offset="0" stop-color="#FFF1A8"/>
      <stop offset="0.65" stop-color="#FFD85A"/>
      <stop offset="1" stop-color="#E98B39"/>
    </radialGradient>
    <style>
      .label{font:700 24px Arial,sans-serif;fill:#27324A;letter-spacing:1px}
      .small{font:600 18px Arial,sans-serif;fill:#5E667A}
      .guide{stroke:#CBD1DE;stroke-width:2;stroke-dasharray:8 8}
      .outline{stroke:#D88A34;stroke-width:8;stroke-linejoin:round;stroke-linecap:round}
      .limb{fill:none;stroke:#D88A34;stroke-width:18;stroke-linecap:round}
      .face{fill:#27324A}
      .cheek{fill:#FFF7C9;opacity:.95}
    </style>
  </defs>
  <rect width="1600" height="1000" fill="#F8F6F0"/>
  <rect x="34" y="34" width="1532" height="932" rx="30" fill="#FFFDFC" stroke="#E6E2D8" stroke-width="3"/>
  <text x="80" y="92" class="label" font-size="34">LUMO · MODEL SHEET V1</text>
  <text x="80" y="126" class="small">Original character · canonical proportions · 2D gouache reference</text>
  <g transform="translate(1240,68)">
    <circle cx="0" cy="0" r="16" fill="#FFD85A"/><text x="28" y="7" class="small">Primary #FFD85A</text>
    <circle cx="0" cy="40" r="16" fill="#FFF1A8"/><text x="28" y="47" class="small">Secondary #FFF1A8</text>
    <circle cx="0" cy="80" r="16" fill="#F79A4A"/><text x="28" y="87" class="small">Accent #F79A4A</text>
  </g>
  <line x1="70" y1="610" x2="1530" y2="610" class="guide"/>
  <line x1="70" y1="210" x2="1530" y2="210" class="guide" opacity=".45"/>
  <g transform="translate(265 395)">
    <ellipse cx="0" cy="244" rx="96" ry="18" fill="#27324A" opacity=".10"/>
    <path d="M0-185 C34-178 55-120 57-85 C92-108 157-111 171-82 C180-55 129-9 96 9 C129 28 165 80 143 107 C119 137 62 114 31 95 C24 136 2 191-33 188 C-68 185-77 127-75 89 C-111 109-170 120-188 87 C-205 55-161 12-128-8 C-160-27-197-77-175-105 C-151-135-91-117-56-96 C-50-137-36-184 0-185Z" fill="url(#body)" class="outline"/>
    <path d="M-86 45 C-120 73-124 116-105 139" class="limb"/>
    <path d="M83 45 C118 72 124 114 104 138" class="limb"/>
    <path d="M-46 166 C-62 200-59 224-40 239" class="limb"/>
    <path d="M35 168 C53 202 50 226 30 240" class="limb"/>
    <ellipse cx="-42" cy="-38" rx="17" ry="25" class="face"/>
    <ellipse cx="42" cy="-38" rx="17" ry="25" class="face"/>
    <path d="M-24 28 Q0 47 24 28" fill="none" stroke="#27324A" stroke-width="8" stroke-linecap="round"/>
    <circle cx="-72" cy="12" r="6" class="cheek"/><circle cx="-57" cy="18" r="5" class="cheek"/>
    <circle cx="72" cy="12" r="6" class="cheek"/><circle cx="57" cy="18" r="5" class="cheek"/>
    <path d="M-58-82 Q-40-96-22-84" fill="none" stroke="#C77B2B" stroke-width="6" stroke-linecap="round"/>
    <path d="M22-84 Q40-96 58-82" fill="none" stroke="#C77B2B" stroke-width="6" stroke-linecap="round"/>
  </g>
  <text x="218" y="650" class="label">FRONT</text>
  <text x="160" y="681" class="small">neutral pose · 1.00× scale</text>
  <g transform="translate(660 395)">
    <ellipse cx="0" cy="244" rx="92" ry="18" fill="#27324A" opacity=".10"/>
    <path d="M20-183 C55-169 67-115 64-80 C103-99 160-94 170-62 C178-35 133 4 101 20 C130 43 156 91 130 115 C103 141 52 111 26 87 C13 132-14 184-48 175 C-82 166-80 108-70 72 C-108 87-163 88-175 53 C-187 19-139-13-104-26 C-130-51-153-99-126-122 C-99-145-48-118-20-94 C-10-135-13-177 20-183Z" fill="url(#bodySide)" class="outline"/>
    <path d="M-82 54 C-111 87-111 124-88 143" class="limb"/>
    <path d="M87 54 C119 81 126 112 109 134" class="limb"/>
    <path d="M-42 163 C-55 197-52 222-33 238" class="limb"/>
    <path d="M39 158 C58 192 57 218 39 237" class="limb"/>
    <ellipse cx="-21" cy="-39" rx="15" ry="24" class="face"/>
    <ellipse cx="49" cy="-34" rx="18" ry="25" class="face"/>
    <path d="M-6 29 Q20 48 45 24" fill="none" stroke="#27324A" stroke-width="8" stroke-linecap="round"/>
    <circle cx="-52" cy="13" r="6" class="cheek"/><circle cx="-38" cy="18" r="5" class="cheek"/>
    <circle cx="79" cy="11" r="6" class="cheek"/><circle cx="66" cy="17" r="5" class="cheek"/>
  </g>
  <text x="575" y="650" class="label">THREE QUARTER</text>
  <text x="580" y="681" class="small">camera-right turn · 35°</text>
  <g transform="translate(1030 395)">
    <ellipse cx="0" cy="244" rx="74" ry="18" fill="#27324A" opacity=".10"/>
    <path d="M25-180 C57-154 56-112 50-80 C88-91 132-75 134-44 C136-15 98 14 69 28 C94 54 104 96 78 115 C52 134 17 104 1 76 C-14 118-42 162-71 148 C-101 134-91 84-77 53 C-111 62-151 51-154 20 C-157-9-119-35-88-47 C-109-74-114-112-89-132 C-64-152-27-127-8-101 C-1-138-7-176 25-180Z" fill="url(#bodySide)" class="outline"/>
    <path d="M-57 58 C-83 91-82 124-61 143" class="limb"/>
    <path d="M64 55 C91 85 92 116 73 136" class="limb"/>
    <path d="M-35 153 C-45 190-41 219-22 238" class="limb"/>
    <path d="M24 150 C40 188 42 218 25 238" class="limb"/>
    <ellipse cx="50" cy="-36" rx="17" ry="25" class="face"/>
    <path d="M49 27 Q65 39 79 26" fill="none" stroke="#27324A" stroke-width="8" stroke-linecap="round"/>
    <circle cx="79" cy="10" r="6" class="cheek"/><circle cx="68" cy="17" r="5" class="cheek"/>
  </g>
  <text x="994" y="650" class="label">SIDE</text>
  <text x="960" y="681" class="small">camera-right profile</text>
  <g transform="translate(1370 395)">
    <ellipse cx="0" cy="244" rx="96" ry="18" fill="#27324A" opacity=".10"/>
    <path d="M0-185 C34-178 55-120 57-85 C92-108 157-111 171-82 C180-55 129-9 96 9 C129 28 165 80 143 107 C119 137 62 114 31 95 C24 136 2 191-33 188 C-68 185-77 127-75 89 C-111 109-170 120-188 87 C-205 55-161 12-128-8 C-160-27-197-77-175-105 C-151-135-91-117-56-96 C-50-137-36-184 0-185Z" fill="url(#body)" class="outline"/>
    <path d="M-86 45 C-120 73-124 116-105 139" class="limb"/>
    <path d="M83 45 C118 72 124 114 104 138" class="limb"/>
    <path d="M-46 166 C-62 200-59 224-40 239" class="limb"/>
    <path d="M35 168 C53 202 50 226 30 240" class="limb"/>
    <path d="M-18-54 Q0-69 18-54" fill="none" stroke="#F6C44B" stroke-width="8" stroke-linecap="round"/>
    <circle cx="0" cy="18" r="16" fill="#FFF1A8" opacity=".65"/>
  </g>
  <text x="1330" y="650" class="label">BACK</text>
  <text x="1298" y="681" class="small">halo core visible</text>
  <text x="80" y="744" class="label">EXPRESSION SET</text>
  <g transform="translate(120 825)">
    <g><circle r="57" fill="url(#body)" stroke="#D88A34" stroke-width="5"/><ellipse cx="-18" cy="-12" rx="7" ry="10" class="face"/><ellipse cx="18" cy="-12" rx="7" ry="10" class="face"/><path d="M-18 15 Q0 32 18 15" fill="none" stroke="#27324A" stroke-width="5" stroke-linecap="round"/><text x="-50" y="88" class="small">alegría</text></g>
    <g transform="translate(190)"><circle r="57" fill="url(#body)" stroke="#D88A34" stroke-width="5"/><ellipse cx="-18" cy="-10" rx="7" ry="12" class="face"/><ellipse cx="18" cy="-10" rx="7" ry="12" class="face"/><path d="M-10 20 Q0 15 10 20" fill="none" stroke="#27324A" stroke-width="5" stroke-linecap="round"/><path d="M-31-31 Q-18-42-6-31M6-31 Q18-42 31-31" fill="none" stroke="#C77B2B" stroke-width="4" stroke-linecap="round"/><text x="-48" y="88" class="small">curiosidad</text></g>
    <g transform="translate(380)"><circle r="57" fill="url(#body)" stroke="#D88A34" stroke-width="5"/><ellipse cx="-18" cy="-11" rx="10" ry="14" class="face"/><ellipse cx="18" cy="-11" rx="10" ry="14" class="face"/><circle cx="0" cy="22" r="9" fill="none" stroke="#27324A" stroke-width="5"/><text x="-42" y="88" class="small">sorpresa</text></g>
    <g transform="translate(570)"><circle r="57" fill="url(#body)" stroke="#D88A34" stroke-width="5"/><ellipse cx="-18" cy="-10" rx="7" ry="10" class="face"/><ellipse cx="18" cy="-10" rx="7" ry="10" class="face"/><path d="M-14 25 Q0 12 14 25" fill="none" stroke="#27324A" stroke-width="5" stroke-linecap="round"/><path d="M-31-27 Q-19-35-8-29M8-29 Q19-35 31-27" fill="none" stroke="#C77B2B" stroke-width="4" stroke-linecap="round"/><text x="-63" y="88" class="small">preocupación</text></g>
    <g transform="translate(760)"><circle r="57" fill="url(#body)" stroke="#D88A34" stroke-width="5"/><ellipse cx="-18" cy="-8" rx="7" ry="9" class="face"/><ellipse cx="18" cy="-8" rx="7" ry="9" class="face"/><path d="M-14 24 Q0 15 14 24" fill="none" stroke="#27324A" stroke-width="5" stroke-linecap="round"/><path d="M-32-28 L-8-21M8-21 L32-28" stroke="#C77B2B" stroke-width="5" stroke-linecap="round"/><text x="-40" y="88" class="small">enfado</text></g>
    <g transform="translate(950)"><circle r="57" fill="url(#body)" stroke="#D88A34" stroke-width="5"/><ellipse cx="-18" cy="-10" rx="7" ry="9" class="face"/><ellipse cx="18" cy="-10" rx="7" ry="9" class="face"/><path d="M-16 27 Q0 10 16 27" fill="none" stroke="#27324A" stroke-width="5" stroke-linecap="round"/><circle cx="31" cy="4" r="5" fill="#78C8E8"/><text x="-41" y="88" class="small">tristeza</text></g>
    <g transform="translate(1140)"><circle r="57" fill="url(#body)" stroke="#D88A34" stroke-width="5"/><ellipse cx="-18" cy="-9" rx="6" ry="8" class="face"/><ellipse cx="18" cy="-9" rx="6" ry="8" class="face"/><path d="M-12 22 L12 22" stroke="#27324A" stroke-width="5" stroke-linecap="round"/><path d="M-31-28 L-8-25M8-25 L31-28" stroke="#C77B2B" stroke-width="4" stroke-linecap="round"/><text x="-59" y="88" class="small">concentración</text></g>
    <g transform="translate(1330)"><circle r="57" fill="url(#body)" stroke="#D88A34" stroke-width="5"/><path d="M-27-9 Q-18-18-9-9M9-9 Q18-18 27-9" fill="none" stroke="#27324A" stroke-width="5" stroke-linecap="round"/><path d="M-19 17 Q0 36 19 17" fill="none" stroke="#27324A" stroke-width="5" stroke-linecap="round"/><text x="-34" y="88" class="small">orgullo</text></g>
  </g>
  <text x="80" y="950" class="small">Canonical invariants: rounded five-point silhouette · top point tilts right · four luminous cheek freckles · short flexible limbs · no hard black outline.</text>
</svg>
