<svg xmlns="http://www.w3.org/2000/svg" width="1600" height="900" viewBox="0 0 1600 900"><defs><linearGradient id="skyWarm" x1="0" y1="0" x2="1" y2="1"><stop offset="0" stop-color="#2D436B"/><stop offset="0.55" stop-color="#667CB3"/><stop offset="1" stop-color="#E8A873"/></linearGradient><linearGradient id="skyDay" x1="0" y1="0" x2="1" y2="1"><stop offset="0" stop-color="#97DDF0"/><stop offset="0.55" stop-color="#C5EED9"/><stop offset="1" stop-color="#F7D58B"/></linearGradient><radialGradient id="goldGlow"><stop offset="0" stop-color="#FFF7C4" stop-opacity="1"/><stop offset="0.32" stop-color="#FFD85A" stop-opacity=".95"/><stop offset="1" stop-color="#F79A4A" stop-opacity="0"/></radialGradient><radialGradient id="plazaGlow"><stop offset="0" stop-color="#FFF5B4"/><stop offset=".45" stop-color="#FFD85A" stop-opacity=".72"/><stop offset="1" stop-color="#FFD85A" stop-opacity="0"/></radialGradient><filter id="shadow" x="-30%" y="-30%" width="160%" height="160%"><feDropShadow dx="0" dy="18" stdDeviation="18" flood-color="#101629" flood-opacity=".32"/></filter><filter id="softGlow" x="-100%" y="-100%" width="300%" height="300%"><feGaussianBlur stdDeviation="18" result="b"/><feMerge><feMergeNode in="b"/><feMergeNode in="SourceGraphic"/></feMerge></filter><filter id="paper"><feTurbulence baseFrequency="0.8" numOctaves="2" seed="4" type="fractalNoise" result="n"/><feColorMatrix in="n" type="saturate" values="0" result="g"/><feComponentTransfer><feFuncA type="table" tableValues="0 0.06"/></feComponentTransfer><feBlend in="SourceGraphic" mode="multiply"/></filter></defs><g filter="url(#paper)"><rect width="1600" height="900" fill="url(#skyDay)"/><path d="M0 620 Q350 520 760 620 T1600 610 V900 H0Z" fill="#8FC78A"/><path d="M240 155 Q410 40 590 175 Q520 300 400 330 Q250 295 240 155Z" fill="#8FD5B6" opacity=".78"/><path d="M380 290 Q340 490 410 690" fill="none" stroke="#76533B" stroke-width="54" stroke-linecap="round"/><ellipse cx="560" cy="700" rx="260" ry="95" fill="#D9C39D"/><rect x="450" y="610" width="205" height="115" rx="18" fill="#F0D77B" transform="rotate(-8 552 668)"/><path d="M555 616V720" stroke="#C78A4D" stroke-width="7"/><circle cx="860" cy="600" r="190" fill="url(#goldGlow)" opacity=".72"/><ellipse cx="865" cy="620" rx="43" ry="32" fill="#FFF2B7" stroke="#E89A3E" stroke-width="7" filter="url(#softGlow)"/><g transform="translate(680 590) scale(1.1)" filter="url(#shadow)"><circle r="105" fill="url(#goldGlow)" opacity=".58"/><path d="M0-92C18-64 40-54 72-48C51-22 48 2 60 34C28 30 13 42 0 68C-13 42-28 30-60 34C-48 2-51-22-72-48C-40-54-18-64 0-92Z" fill="#FFD85A" stroke="#E58B3E" stroke-width="8" stroke-linejoin="round"/><ellipse cx="-25" cy="-12" rx="10" ry="16" fill="#27324A"/><ellipse cx="25" cy="-12" rx="10" ry="16" fill="#27324A"/><path d="M-10 24Q0 30 10 24" fill="none" stroke="#27324A" stroke-width="6" stroke-linecap="round"/><circle cx="-42" cy="11" r="4.5" fill="#FFF1A8"/><circle cx="-30" cy="16" r="4" fill="#FFF1A8"/><circle cx="42" cy="11" r="4.5" fill="#FFF1A8"/><circle cx="30" cy="16" r="4" fill="#FFF1A8"/><path d="M-56 22Q-85 42-94 62" fill="none" stroke="#FFD85A" stroke-width="16" stroke-linecap="round"/><path d="M56 22Q85 42 94 62" fill="none" stroke="#FFD85A" stroke-width="16" stroke-linecap="round"/><path d="M-24 58Q-33 83-28 102M24 58Q33 83 28 102" fill="none" stroke="#FFD85A" stroke-width="17" stroke-linecap="round"/></g><path d="M743 645Q812 628 848 617" fill="none" stroke="#FFD85A" stroke-width="12" stroke-linecap="round" opacity=".7"/><g font-family="Arial,Helvetica,sans-serif"><rect x="48" y="46" width="1504" height="82" rx="28" fill="#0C1325" opacity=".72"/><text x="86" y="82" fill="#BCECF4" font-size="24" font-weight="700">SC02 · KEYFRAME DE REVISIÓN</text><text x="86" y="111" fill="#FFF" font-size="31" font-weight="800">El rincón luminoso</text><text x="1510" y="98" fill="#D6E6F1" font-size="18" text-anchor="end">0:08–0:24 · Presentación</text></g><g font-family="Arial,Helvetica,sans-serif"><rect x="48" y="820" width="1504" height="44" rx="18" fill="#0C1325" opacity=".7"/><text x="80" y="849" fill="#D8E7F0" font-size="17">Objetivo: presentar a Lumo, su escala y la piedra luminosa con una composición tranquila y memorable.</text><text x="1520" y="849" fill="#9ECBD3" font-size="16" text-anchor="end">Lumo Kids · v1 · revisión humana pendiente</text></g></g></svg>