<svg xmlns="http://www.w3.org/2000/svg" width="1600" height="900" viewBox="0 0 1600 900"><defs><linearGradient id="skyWarm" x1="0" y1="0" x2="1" y2="1"><stop offset="0" stop-color="#2D436B"/><stop offset="0.55" stop-color="#667CB3"/><stop offset="1" stop-color="#E8A873"/></linearGradient><linearGradient id="skyDay" x1="0" y1="0" x2="1" y2="1"><stop offset="0" stop-color="#97DDF0"/><stop offset="0.55" stop-color="#C5EED9"/><stop offset="1" stop-color="#F7D58B"/></linearGradient><radialGradient id="goldGlow"><stop offset="0" stop-color="#FFF7C4" stop-opacity="1"/><stop offset="0.32" stop-color="#FFD85A" stop-opacity=".95"/><stop offset="1" stop-color="#F79A4A" stop-opacity="0"/></radialGradient><radialGradient id="plazaGlow"><stop offset="0" stop-color="#FFF5B4"/><stop offset=".45" stop-color="#FFD85A" stop-opacity=".72"/><stop offset="1" stop-color="#FFD85A" stop-opacity="0"/></radialGradient><filter id="shadow" x="-30%" y="-30%" width="160%" height="160%"><feDropShadow dx="0" dy="18" stdDeviation="18" flood-color="#101629" flood-opacity=".32"/></filter><filter id="softGlow" x="-100%" y="-100%" width="300%" height="300%"><feGaussianBlur stdDeviation="18" result="b"/><feMerge><feMergeNode in="b"/><feMergeNode in="SourceGraphic"/></feMerge></filter><filter id="paper"><feTurbulence baseFrequency="0.8" numOctaves="2" seed="4" type="fractalNoise" result="n"/><feColorMatrix in="n" type="saturate" values="0" result="g"/><feComponentTransfer><feFuncA type="table" tableValues="0 0.06"/></feComponentTransfer><feBlend in="SourceGraphic" mode="multiply"/></filter></defs><g filter="url(#paper)"><rect width="1600" height="900" fill="url(#skyWarm)"/><path d="M0 610 Q280 520 520 590 T1040 570 T1600 610 V900 H0Z" fill="#6C9A73"/><path d="M0 690 Q310 610 640 670 T1200 650 T1600 700 V900 H0Z" fill="#9FC882"/><ellipse cx="800" cy="700" rx="490" ry="135" fill="#E9D4A3" opacity=".92"/><g opacity=".52"><circle cx="160" cy="130" r="75" fill="#A4D8C4"/><circle cx="280" cy="120" r="95" fill="#7CB69C"/><circle cx="1360" cy="140" r="95" fill="#86B8A4"/><circle cx="1470" cy="160" r="70" fill="#A7D5BC"/></g><path d="M260 280 Q800 170 1340 280" fill="none" stroke="#E7D6A4" stroke-width="8" stroke-linecap="round"/><g opacity=".35"><circle cx="350" cy="255" r="14" fill="#FFD85A"/><circle cx="570" cy="220" r="14" fill="#FFD85A"/><circle cx="800" cy="205" r="14" fill="#FFD85A"/><circle cx="1030" cy="220" r="14" fill="#FFD85A"/><circle cx="1250" cy="255" r="14" fill="#FFD85A"/></g><circle cx="800" cy="555" r="250" fill="url(#goldGlow)" opacity=".58"/><ellipse cx="800" cy="620" rx="43" ry="31" fill="#FFF3B8" stroke="#E89A3E" stroke-width="7" filter="url(#softGlow)"/><g transform="translate(800 550) scale(1.02)" filter="url(#shadow)"><path d="M0-92C18-64 40-54 72-48C51-22 48 2 60 34C28 30 13 42 0 68C-13 42-28 30-60 34C-48 2-51-22-72-48C-40-54-18-64 0-92Z" fill="#FFD85A" stroke="#E58B3E" stroke-width="8" stroke-linejoin="round"/><ellipse cx="-25" cy="-12" rx="10" ry="16" fill="#27324A"/><ellipse cx="25" cy="-12" rx="10" ry="16" fill="#27324A"/><path d="M-34-12Q-24-17-14-13M14-13Q24-17 34-12" fill="none" stroke="#27324A" stroke-width="4" stroke-linecap="round"/><path d="M-14 25Q0 32 14 25" fill="none" stroke="#27324A" stroke-width="6" stroke-linecap="round"/><circle cx="-42" cy="11" r="4.5" fill="#FFF1A8"/><circle cx="-30" cy="16" r="4" fill="#FFF1A8"/><circle cx="42" cy="11" r="4.5" fill="#FFF1A8"/><circle cx="30" cy="16" r="4" fill="#FFF1A8"/><path d="M-56 22Q-85 42-94 62" fill="none" stroke="#FFD85A" stroke-width="16" stroke-linecap="round"/><path d="M56 22Q85 42 94 62" fill="none" stroke="#FFD85A" stroke-width="16" stroke-linecap="round"/><path d="M-24 58Q-33 83-28 102M24 58Q33 83 28 102" fill="none" stroke="#FFD85A" stroke-width="17" stroke-linecap="round"/></g><g transform="translate(520 565) scale(.78)" filter="url(#shadow)"><ellipse cy="12" rx="65" ry="80" fill="#79C56F" stroke="#3D8D5A" stroke-width="7"/><path d="M-9-73C-40-112-68-100-63-67C-45-63-28-66-9-73Z" fill="#A7E08D" stroke="#3D8D5A" stroke-width="6"/><path d="M6-70C30-114 67-106 65-70C44-62 24-63 6-70Z" fill="#8FD47C" stroke="#3D8D5A" stroke-width="6"/><ellipse cx="-20" rx="8" ry="13" fill="#244233"/><ellipse cx="20" rx="8" ry="13" fill="#244233"/><path d="M-14 30Q0 42 14 30" fill="none" stroke="#244233" stroke-width="5" stroke-linecap="round"/></g><g transform="translate(1085 580) scale(.8)" filter="url(#shadow)"><ellipse cy="12" rx="72" ry="70" fill="#B97B4D" stroke="#74452D" stroke-width="7"/><path d="M-72-10Q0-82 72-10Q0-42-72-10Z" fill="#7E5134"/><ellipse cx="-23" cy="4" rx="8" ry="12" fill="#2F2924"/><ellipse cx="23" cy="4" rx="8" ry="12" fill="#2F2924"/><path d="M-13 29Q0 38 13 29" fill="none" stroke="#2F2924" stroke-width="5" stroke-linecap="round"/><rect x="-42" y="45" width="84" height="30" rx="12" fill="#E9B86C" opacity=".9"/></g><g transform="translate(1235 445) scale(.64)" filter="url(#shadow)"><ellipse cy="10" rx="54" ry="67" fill="#77D6E8" stroke="#3388A2" stroke-width="7"/><path d="M-45-8Q-100-45-78 20Q-55 38-25 30" fill="#B8EFF6" stroke="#3388A2" stroke-width="6"/><path d="M45-8Q100-45 78 20Q55 38 25 30" fill="#B8EFF6" stroke="#3388A2" stroke-width="6"/><path d="M45 6L83 18 48 31Z" fill="#F5A64A"/><ellipse cx="-18" cy="-4" rx="7" ry="11" fill="#234158"/><ellipse cx="15" cy="-4" rx="7" ry="11" fill="#234158"/></g><g transform="translate(360 500) scale(.66)" filter="url(#shadow)"><path d="M-70 14C-80-33-42-69 0-52C36-78 82-38 67 4C96 34 60 76 20 62C-10 89-55 68-55 38C-76 32-78 22-70 14Z" fill="#BBA6DD" stroke="#6F5A99" stroke-width="7"/><ellipse cx="-20" cy="3" rx="8" ry="12" fill="#3E3555"/><ellipse cx="20" cy="3" rx="8" ry="12" fill="#3E3555"/><path d="M-12 28Q0 37 12 28" fill="none" stroke="#3E3555" stroke-width="5" stroke-linecap="round"/></g><path d="M750 625Q790 650 800 654Q810 650 850 625" fill="none" stroke="#FFD85A" stroke-width="18" stroke-linecap="round"/><path d="M580 610Q650 665 720 650" fill="none" stroke="#79C56F" stroke-width="12" stroke-linecap="round" opacity=".72"/><g font-family="Arial,Helvetica,sans-serif"><rect x="48" y="46" width="1504" height="82" rx="28" fill="#0C1325" opacity=".72"/><text x="86" y="82" fill="#BCECF4" font-size="24" font-weight="700">SC14 · KEYFRAME DE REVISIÓN</text><text x="86" y="111" fill="#FFF" font-size="31" font-weight="800">Lumo dice la verdad</text><text x="1510" y="98" fill="#D6E6F1" font-size="18" text-anchor="end">3:57–4:13 · Confesión</text></g><g font-family="Arial,Helvetica,sans-serif"><rect x="48" y="820" width="1504" height="44" rx="18" fill="#0C1325" opacity=".7"/><text x="80" y="849" fill="#D8E7F0" font-size="17">Objetivo: vulnerabilidad sin culpa excesiva; el semicírculo transmite apoyo, escucha y seguridad.</text><text x="1520" y="849" fill="#9ECBD3" font-size="16" text-anchor="end">Lumo Kids · v1 · revisión humana pendiente</text></g></g></svg>